<?xml version="1.0" encoding="UTF-8"?>
<!DOCTYPE svg PUBLIC "-//W3C//DTD SVG 1.1//EN" "http://www.w3.org/Graphics/SVG/1.1/DTD/svg11.dtd">
<!-- Creator: CorelDRAW X7 -->
<svg xmlns="http://www.w3.org/2000/svg" xml:space="preserve" width="647px" height="386px" version="1.1" style="shape-rendering:geometricPrecision; text-rendering:geometricPrecision; image-rendering:optimizeQuality; fill-rule:evenodd; clip-rule:evenodd"
viewBox="0 0 647 386"
 xmlns:xlink="http://www.w3.org/1999/xlink">
 <defs>
  <style type="text/css">
   <![CDATA[
    .fil2 {fill:#04DC9A}
    .fil1 {fill:#0D7BFC}
    .fil3 {fill:#F59F02}
    .fil0 {fill:#030E1A;fill-rule:nonzero}
   ]]>
  </style>
 </defs>
 <g id="Layer_x0020_2">
  <metadata id="CorelCorpID_0Corel-Layer"/>
  <path class="fil0" d="M36 357c4,0 7,-1 10,-2 3,-2 6,-4 9,-7l7 8c-7,8 -16,12 -26,12 -10,0 -19,-4 -26,-10 -7,-7 -10,-15 -10,-25 0,-11 3,-19 10,-26 7,-7 16,-10 27,-10 10,0 19,4 26,12l-7 8c-3,-3 -6,-5 -9,-7 -3,-1 -7,-2 -11,-2 -6,0 -12,3 -17,7 -5,5 -7,10 -7,17 0,7 2,13 7,18 5,4 10,7 17,7zm47 -18l0 28 -11 0 0 -72 11 0 0 30c2,-4 4,-6 7,-8 3,-2 7,-3 10,-3 6,0 11,2 14,6 4,3 6,8 6,15l0 32 -11 0 0 -29c0,-9 -4,-14 -12,-14 -4,0 -7,1 -10,4 -3,2 -4,6 -4,11zm92 28l-10 0 0 -7c-5,5 -10,8 -18,8 -5,0 -10,-2 -13,-5 -4,-3 -5,-7 -5,-12 0,-5 1,-9 5,-12 4,-2 9,-3 16,-3l14 0 0 -2c0,-7 -4,-11 -12,-11 -5,0 -10,2 -15,6l-5 -7c7,-5 14,-8 22,-8 6,0 11,2 15,5 4,3 6,8 6,15l0 33zm-11 -19l0 -5 -13 0c-8,0 -12,3 -12,8 0,2 1,4 3,6 2,1 5,2 9,2 3,0 6,-1 9,-3 2,-2 4,-5 4,-8zm51 -34c7,0 13,3 18,7 5,5 7,12 7,20 0,8 -2,14 -7,19 -5,5 -11,8 -17,8 -7,0 -13,-3 -18,-9l0 27 -11 0 0 -71 11 0 0 9c4,-6 10,-10 17,-10zm-17 27c0,5 1,9 4,12 3,3 7,5 11,5 5,0 8,-2 11,-5 4,-3 5,-7 5,-12 0,-5 -1,-9 -4,-12 -4,-4 -7,-5 -12,-5 -4,0 -8,1 -11,5 -3,3 -4,7 -4,12zm100 5l-40 0c0,4 2,7 5,9 3,2 7,3 11,3 6,0 11,-2 15,-6l6 7c-6,6 -13,9 -22,9 -7,0 -14,-3 -19,-7 -5,-5 -7,-12 -7,-20 0,-8 2,-15 8,-20 5,-4 11,-7 18,-7 7,0 13,2 18,7 5,4 7,10 7,17l0 8zm-40 -9l29 0c0,-4 -1,-7 -4,-10 -2,-2 -6,-3 -10,-3 -4,0 -7,1 -11,3 -3,3 -4,6 -4,10zm61 30l-11 0 0 -72 11 0 0 72zm35 -56c-2,0 -4,0 -6,1 -1,2 -2,3 -2,5 0,2 1,4 3,5 2,1 6,2 12,4 7,2 12,4 15,7 4,3 6,8 6,14 0,6 -3,11 -7,15 -5,4 -11,6 -18,6 -11,0 -21,-4 -30,-12l9 -11c8,6 15,9 21,9 3,0 5,0 6,-1 2,-2 3,-3 3,-5 0,-2 -1,-4 -3,-5 -1,-1 -5,-3 -10,-4 -8,-2 -13,-4 -17,-7 -4,-3 -6,-8 -6,-15 0,-6 3,-11 7,-15 5,-3 11,-5 18,-5 4,0 9,1 13,3 5,1 9,3 12,6l-7 11c-6,-4 -12,-6 -19,-6zm62 44c5,0 9,-3 13,-8l9 10c-7,7 -15,11 -22,11 -8,0 -15,-3 -20,-8 -6,-5 -9,-11 -9,-19 0,-8 3,-15 9,-20 5,-5 12,-7 19,-7 4,0 8,0 12,2 4,1 7,4 10,7l-8 10c-1,-2 -3,-4 -6,-5 -2,-1 -5,-2 -7,-2 -4,0 -7,2 -10,4 -3,3 -4,6 -4,11 0,4 1,8 4,10 3,3 6,4 10,4zm56 -28c-4,0 -7,2 -9,5 -2,3 -4,7 -4,12l0 23 -14 0 0 -53 14 0 0 7c2,-2 5,-4 8,-5 2,-2 5,-2 8,-2l0 13 -3 0zm56 32c-6,6 -13,9 -21,9 -8,0 -15,-3 -20,-8 -5,-5 -8,-11 -8,-19 0,-9 3,-15 8,-20 6,-5 12,-7 19,-7 7,0 14,2 19,6 5,4 7,10 7,18l0 8 -38 0c0,3 2,5 4,7 3,2 6,3 9,3 5,0 9,-2 13,-5l8 8zm-11 -24c0,-3 -1,-5 -3,-7 -2,-1 -5,-2 -8,-2 -2,0 -5,1 -8,2 -2,2 -3,4 -4,7l23 0zm69 24c-6,6 -13,9 -21,9 -8,0 -15,-3 -20,-8 -5,-5 -8,-11 -8,-19 0,-9 3,-15 8,-20 5,-5 12,-7 19,-7 7,0 13,2 18,6 5,4 8,10 8,18l0 8 -38 0c0,3 2,5 4,7 3,2 6,3 9,3 5,0 9,-2 12,-5l9 8zm-11 -24c0,-3 -1,-5 -3,-7 -2,-1 -5,-2 -8,-2 -3,0 -5,1 -8,2 -2,2 -4,4 -4,7l23 0zm38 3l0 29 -15 0 0 -53 15 0 0 6c4,-4 9,-6 14,-6 6,0 11,2 14,5 4,4 6,10 6,16l0 32 -15 0 0 -30c0,-8 -3,-12 -9,-12 -2,0 -5,1 -7,3 -2,2 -3,6 -3,10z"/>
 </g>
 <g id="Layer_x0020_3">
  <metadata id="CorelCorpID_1Corel-Layer"/>
  <path class="fil1" d="M243 27l161 0c5,0 9,-4 9,-9l0 -9c0,-5 -4,-9 -9,-9l-161 0c-5,0 -9,4 -9,9l0 9c0,5 4,9 9,9z"/>
 </g>
 <g id="Layer_x0020_4">
  <metadata id="CorelCorpID_2Corel-Layer"/>
  <path class="fil2" d="M345 67l76 0c5,0 9,-4 9,-8l0 -10c0,-5 -4,-9 -9,-9l-195 0c-5,0 -9,4 -9,9l0 10c0,4 4,8 9,8l76 0 0 -8c0,-3 2,-5 5,-5l33 0c3,0 5,2 5,5l0 8z"/>
 </g>
 <g id="Layer_x0020_5">
  <metadata id="CorelCorpID_3Corel-Layer"/>
  <path class="fil3" d="M302 262l0 -111 -49 0c-3,0 -5,-2 -5,-5l0 -33c0,-3 2,-5 5,-5l49 0 0 -27 -96 0c-5,0 -9,4 -9,9l0 163c0,5 4,9 9,9l96 0zm43 -111l0 111 96 0c5,0 9,-4 9,-9l0 -163c0,-5 -4,-9 -9,-9l-96 0 0 27 49 0c3,0 5,2 5,5l0 33c0,3 -2,5 -5,5l-49 0z"/>
 </g>
</svg>
