<?xml version="1.0" encoding="UTF-8"?>
<!DOCTYPE svg PUBLIC "-//W3C//DTD SVG 1.1//EN" "http://www.w3.org/Graphics/SVG/1.1/DTD/svg11.dtd">
<!-- Creator: CorelDRAW X7 -->
<svg xmlns="http://www.w3.org/2000/svg" xml:space="preserve" width="842px" height="170px" version="1.1" style="shape-rendering:geometricPrecision; text-rendering:geometricPrecision; image-rendering:optimizeQuality; fill-rule:evenodd; clip-rule:evenodd"
viewBox="0 0 842 170"
 xmlns:xlink="http://www.w3.org/1999/xlink">
 <defs>
  <style type="text/css">
   <![CDATA[
    .fil2 {fill:#04DC9A}
    .fil1 {fill:#0D7BFC}
    .fil3 {fill:#F59F02}
    .fil0 {fill:#030E1A;fill-rule:nonzero}
   ]]>
  </style>
 </defs>
 <g id="Layer_x0020_2">
  <metadata id="CorelCorpID_0Corel-Layer"/>
  <path class="fil0" d="M230 116c4,0 8,-1 11,-2 2,-2 5,-4 8,-7l8 8c-7,8 -16,12 -26,12 -11,0 -19,-3 -26,-10 -7,-7 -10,-15 -10,-25 0,-10 3,-19 10,-26 7,-6 16,-10 26,-10 11,0 20,4 27,12l-7 8c-4,-3 -7,-5 -10,-6 -3,-2 -6,-2 -10,-2 -7,0 -13,2 -17,6 -5,5 -7,11 -7,17 0,7 2,13 7,18 4,4 10,7 16,7zm48 -18l0 28 -11 0 0 -72 11 0 0 30c1,-3 4,-6 7,-8 3,-2 6,-2 10,-2 6,0 11,1 14,5 4,3 6,9 6,15l0 32 -11 0 0 -28c0,-10 -4,-15 -12,-15 -4,0 -7,2 -10,4 -3,3 -4,6 -4,11zm91 28l-10 0 0 -7c-4,5 -10,8 -17,8 -5,0 -10,-1 -13,-5 -4,-3 -6,-7 -6,-12 0,-5 2,-9 6,-11 4,-3 9,-4 15,-4l14 0 0 -2c0,-7 -3,-10 -11,-10 -5,0 -10,1 -15,5l-5 -7c6,-5 13,-7 21,-7 7,0 12,1 15,4 4,3 6,8 6,15l0 33zm-11 -19l0 -4 -12 0c-8,0 -12,2 -12,7 0,3 1,4 3,6 2,1 5,2 8,2 4,0 7,-1 9,-3 3,-2 4,-5 4,-8zm52 -33c7,0 13,2 18,7 5,5 7,11 7,19 0,8 -2,15 -7,20 -5,5 -11,7 -18,7 -6,0 -12,-3 -17,-9l0 27 -11 0 0 -71 11 0 0 9c4,-6 10,-9 17,-9zm-17 26c0,5 1,9 4,13 3,3 7,4 11,4 4,0 8,-1 11,-4 3,-4 5,-8 5,-13 0,-5 -1,-9 -5,-12 -3,-3 -6,-5 -11,-5 -4,0 -8,2 -11,5 -3,3 -4,7 -4,12zm100 5l-41 0c1,4 2,7 6,9 3,3 6,4 11,4 6,0 11,-2 14,-6l7 6c-6,6 -13,9 -22,9 -8,0 -14,-2 -19,-7 -5,-5 -7,-12 -7,-20 0,-8 2,-14 7,-19 6,-5 12,-7 19,-7 7,0 13,2 18,6 5,4 7,10 7,18l0 7zm-41 -9l30 0c0,-4 -1,-7 -4,-10 -3,-2 -6,-3 -10,-3 -4,0 -8,1 -11,4 -3,2 -5,5 -5,9zm61 30l-10 0 0 -72 10 0 0 72zm36 -56c-2,0 -4,0 -6,2 -1,1 -2,2 -2,4 0,2 1,4 3,5 1,1 6,3 12,4 6,2 11,4 15,7 4,4 5,8 5,14 0,7 -2,12 -6,15 -5,4 -11,6 -19,6 -10,0 -20,-4 -29,-12l9 -11c8,6 14,10 21,10 3,0 5,-1 6,-2 2,-1 3,-3 3,-5 0,-2 -1,-4 -3,-5 -2,-1 -5,-2 -10,-4 -8,-2 -14,-4 -17,-7 -4,-3 -6,-8 -6,-14 0,-7 2,-12 7,-15 5,-4 11,-6 18,-6 4,0 9,1 13,3 5,1 9,4 12,6l-8 12c-5,-5 -12,-7 -18,-7zm62 44c4,0 9,-2 13,-7l8 10c-6,7 -14,10 -21,10 -8,0 -15,-2 -20,-7 -6,-5 -9,-12 -9,-20 0,-8 3,-15 9,-20 5,-5 12,-7 19,-7 4,0 8,1 12,2 4,2 7,4 10,7l-8 10c-1,-2 -3,-4 -6,-5 -2,-1 -5,-1 -7,-1 -4,0 -7,1 -10,3 -3,3 -4,6 -4,11 0,4 1,8 4,10 3,3 6,4 10,4zm56 -27c-4,0 -7,1 -9,4 -3,3 -4,7 -4,13l0 22 -14 0 0 -52 14 0 0 7c2,-2 5,-4 7,-6 3,-1 6,-2 9,-2l0 14 -3 0zm56 32c-6,5 -13,8 -21,8 -8,0 -15,-2 -20,-7 -5,-5 -8,-12 -8,-20 0,-8 3,-15 8,-20 6,-5 12,-7 19,-7 7,0 13,2 19,6 5,5 7,11 7,18l0 8 -38 0c0,3 2,5 4,7 3,2 6,3 9,3 5,0 9,-2 13,-5l8 9zm-11 -24c0,-3 -1,-6 -3,-8 -2,-1 -5,-2 -8,-2 -3,0 -5,1 -8,3 -2,1 -3,4 -4,7l23 0zm69 24c-6,5 -13,8 -21,8 -8,0 -15,-2 -20,-7 -5,-5 -8,-12 -8,-20 0,-8 3,-15 8,-20 5,-5 12,-7 19,-7 7,0 13,2 18,6 5,5 8,11 8,18l0 8 -38 0c0,3 2,5 4,7 3,2 5,3 9,3 5,0 9,-2 12,-5l9 9zm-11 -24c0,-3 -1,-6 -3,-8 -3,-1 -5,-2 -8,-2 -3,0 -5,1 -8,3 -2,1 -4,4 -4,7l23 0zm38 2l0 29 -15 0 0 -52 15 0 0 6c4,-5 9,-7 14,-7 6,0 11,2 14,6 4,4 6,9 6,15l0 32 -15 0 0 -29c0,-9 -3,-13 -9,-13 -2,0 -5,2 -7,4 -2,2 -3,5 -3,9z"/>
 </g>
 <g id="Layer_x0020_3">
  <metadata id="CorelCorpID_1Corel-Layer"/>
  <path class="fil1" d="M29 17l105 0c3,0 6,-2 6,-5l0 -6c0,-3 -3,-6 -6,-6l-105 0c-3,0 -5,3 -5,6l0 6c0,3 2,5 5,5z"/>
 </g>
 <g id="Layer_x0020_4">
  <metadata id="CorelCorpID_2Corel-Layer"/>
  <path class="fil2" d="M96 44l49 0c3,0 6,-3 6,-6l0 -6c0,-3 -3,-6 -6,-6l-126 0c-4,0 -6,3 -6,6l0 6c0,3 2,6 6,6l49 0 0 -6c0,-2 1,-3 3,-3l22 0c1,0 3,1 3,3l0 6z"/>
 </g>
 <g id="Layer_x0020_5">
  <metadata id="CorelCorpID_3Corel-Layer"/>
  <path class="fil3" d="M96 98l0 72 62 0c3,0 6,-3 6,-6l0 -106c0,-3 -3,-6 -6,-6l-62 0 0 18 32 0c1,0 3,1 3,3l0 22c0,1 -2,3 -3,3l-32 0zm-28 72l0 -72 -32 0c-2,0 -3,-2 -3,-3l0 -22c0,-2 1,-3 3,-3l32 0 0 -18 -62 0c-3,0 -6,3 -6,6l0 106c0,3 3,6 6,6l62 0z"/>
 </g>
</svg>
