<?xml version="1.0" encoding="UTF-8"?>
<!DOCTYPE svg PUBLIC "-//W3C//DTD SVG 1.1//EN" "http://www.w3.org/Graphics/SVG/1.1/DTD/svg11.dtd">
<!-- Creator: CorelDRAW X7 -->
<svg xmlns="http://www.w3.org/2000/svg" xml:space="preserve" width="1000px" height="1000px" version="1.1" style="shape-rendering:geometricPrecision; text-rendering:geometricPrecision; image-rendering:optimizeQuality; fill-rule:evenodd; clip-rule:evenodd"
viewBox="0 0 1000 1000"
 xmlns:xlink="http://www.w3.org/1999/xlink">
 <defs>
  <style type="text/css">
   <![CDATA[
    .fil0 {fill:#030E1A}
    .fil3 {fill:#04DC9A}
    .fil2 {fill:#0D7BFC}
    .fil4 {fill:#F59F02}
    .fil1 {fill:white;fill-rule:nonzero}
   ]]>
  </style>
 </defs>
 <g id="Layer_x0020_1">
  <metadata id="CorelCorpID_0Corel-Layer"/>
  <rect class="fil0" width="1000" height="1000"/>
 </g>
 <g id="Layer_x0020_2">
  <metadata id="CorelCorpID_1Corel-Layer"/>
  <path class="fil1" d="M212 664c4,0 7,-1 10,-2 3,-2 6,-4 9,-7l8 8c-8,8 -16,12 -27,12 -10,0 -19,-3 -25,-10 -7,-7 -11,-15 -11,-25 0,-10 4,-19 11,-26 7,-6 15,-10 26,-10 11,0 19,4 27,12l-8 8c-3,-3 -6,-5 -9,-7 -3,-1 -6,-2 -10,-2 -7,0 -13,3 -18,7 -4,5 -7,10 -7,17 0,7 3,13 7,18 5,4 11,7 17,7zm47 -18l0 28 -11 0 0 -72 11 0 0 30c2,-4 4,-6 7,-8 4,-2 7,-3 11,-3 6,0 10,2 14,6 3,3 5,8 5,15l0 32 -11 0 0 -28c0,-10 -4,-15 -12,-15 -3,0 -7,1 -9,4 -3,2 -5,6 -5,11zm92 28l-10 0 0 -7c-4,5 -10,8 -17,8 -6,0 -10,-2 -14,-5 -3,-3 -5,-7 -5,-12 0,-5 2,-9 6,-11 3,-3 9,-4 15,-4l14 0 0 -2c0,-7 -4,-11 -11,-11 -5,0 -10,2 -15,6l-5 -7c6,-5 13,-8 21,-8 6,0 11,2 15,5 4,3 6,8 6,15l0 33zm-11 -19l0 -5 -12 0c-8,0 -12,3 -12,8 0,2 1,4 3,6 2,1 4,2 8,2 3,0 7,-1 9,-3 3,-2 4,-5 4,-8zm51 -34c7,0 13,3 18,8 5,4 8,11 8,19 0,8 -3,14 -8,19 -5,5 -10,8 -17,8 -6,0 -12,-3 -18,-9l0 27 -10 0 0 -71 10 0 0 9c5,-6 10,-10 17,-10zm-17 27c0,5 2,9 5,12 3,4 6,5 11,5 4,0 8,-1 11,-5 3,-3 5,-7 5,-12 0,-5 -2,-9 -5,-12 -3,-3 -7,-5 -11,-5 -5,0 -8,2 -11,5 -3,3 -5,7 -5,12zm101 5l-41 0c0,4 2,7 5,9 3,2 7,4 11,4 7,0 12,-3 15,-7l6 7c-5,6 -13,9 -22,9 -7,0 -13,-3 -18,-7 -5,-5 -8,-12 -8,-20 0,-8 3,-15 8,-19 5,-5 11,-8 18,-8 7,0 13,2 18,7 5,4 8,10 8,17l0 8zm-41 -9l30 0c0,-4 -1,-7 -4,-10 -3,-2 -6,-3 -10,-3 -4,0 -8,1 -11,3 -3,3 -5,6 -5,10zm61 30l-11 0 0 -72 11 0 0 72zm36 -56c-3,0 -5,0 -6,1 -2,2 -2,3 -2,5 0,2 0,4 2,5 2,1 6,3 13,4 6,2 11,4 15,7 3,3 5,8 5,14 0,6 -2,11 -7,15 -4,4 -10,6 -18,6 -11,0 -20,-4 -29,-12l9 -11c7,6 14,9 20,9 3,0 5,0 7,-1 2,-2 2,-3 2,-5 0,-2 0,-4 -2,-5 -2,-1 -5,-3 -10,-4 -8,-2 -14,-4 -18,-7 -3,-3 -5,-8 -5,-14 0,-7 2,-12 7,-15 4,-4 10,-6 17,-6 5,0 9,1 14,3 4,1 8,3 12,6l-8 11c-6,-4 -12,-6 -18,-6zm61 44c5,0 10,-3 13,-7l9 9c-7,7 -14,11 -22,11 -8,0 -14,-3 -20,-8 -5,-5 -8,-11 -8,-19 0,-8 3,-15 8,-20 6,-5 12,-7 20,-7 4,0 7,0 11,2 4,2 8,4 11,7l-8 10c-2,-2 -4,-4 -6,-5 -3,-1 -5,-1 -8,-1 -3,0 -7,1 -9,3 -3,3 -5,6 -5,11 0,4 2,8 5,10 2,3 6,4 9,4zm57 -28c-4,0 -8,2 -10,5 -2,3 -3,7 -3,12l0 23 -15 0 0 -52 15 0 0 6c2,-2 4,-3 7,-5 3,-1 6,-2 9,-2l0 13 -3 0zm55 32c-5,6 -12,9 -20,9 -8,0 -15,-3 -20,-7 -5,-5 -8,-12 -8,-20 0,-9 3,-15 8,-20 5,-5 12,-7 19,-7 7,0 13,2 18,6 5,5 8,11 8,18l0 8 -39 0c1,3 2,5 5,7 2,2 5,3 9,3 5,0 9,-2 12,-5l8 8zm-10 -23c0,-4 -2,-6 -4,-8 -2,-1 -4,-2 -7,-2 -3,0 -6,1 -8,2 -2,2 -4,5 -4,8l23 0zm68 23c-6,6 -13,9 -21,9 -8,0 -14,-3 -19,-7 -6,-5 -8,-12 -8,-20 0,-9 2,-15 8,-20 5,-5 11,-7 19,-7 7,0 13,2 18,6 5,5 8,11 8,18l0 8 -39 0c1,3 2,5 5,7 2,2 5,3 8,3 5,0 10,-2 13,-5l8 8zm-10 -23c-1,-4 -2,-6 -4,-8 -2,-1 -4,-2 -7,-2 -3,0 -6,1 -8,2 -3,2 -4,5 -4,8l23 0zm37 2l0 29 -15 0 0 -52 15 0 0 5c5,-4 10,-6 15,-6 6,0 10,2 14,6 4,3 6,9 6,15l0 32 -15 0 0 -30c0,-8 -3,-12 -9,-12 -3,0 -5,1 -8,3 -2,3 -3,6 -3,10z"/>
 </g>
 <g id="Layer_x0020_3">
  <metadata id="CorelCorpID_2Corel-Layer"/>
  <path class="fil2" d="M419 334l162 0c5,0 9,-4 9,-9l0 -9c0,-5 -4,-9 -9,-9l-162 0c-5,0 -9,4 -9,9l0 9c0,5 4,9 9,9z"/>
 </g>
 <g id="Layer_x0020_4">
  <metadata id="CorelCorpID_3Corel-Layer"/>
  <path class="fil3" d="M522 374l75 0c5,0 9,-4 9,-8l0 -10c0,-5 -4,-9 -9,-9l-194 0c-5,0 -9,4 -9,9l0 10c0,4 4,8 9,8l75 0 0 -8c0,-3 3,-5 5,-5l34 0c2,0 5,2 5,5l0 8z"/>
 </g>
 <g id="Layer_x0020_5">
  <metadata id="CorelCorpID_4Corel-Layer"/>
  <path class="fil4" d="M478 569l0 -111 -49 0c-2,0 -4,-2 -4,-5l0 -33c0,-3 2,-5 4,-5l49 0 0 -27 -95 0c-5,0 -9,4 -9,9l0 163c0,5 4,9 9,9l95 0zm44 -111l0 111 95 0c5,0 9,-4 9,-9l0 -163c0,-5 -4,-9 -9,-9l-95 0 0 27 49 0c2,0 4,2 4,5l0 33c0,3 -2,5 -4,5l-49 0z"/>
 </g>
</svg>
